<svg width="20" height="20" viewBox="0 0 20 20" fill="none" xmlns="http://www.w3.org/2000/svg">
<path d="M0.284605 9.45478C2.22402 8.3703 4.39894 7.45483 6.42148 6.53935C9.91244 5.04643 13.4034 3.56759 16.9498 2.20142C17.6424 1.96199 18.8753 1.73664 19 2.77887C18.9307 4.24363 18.6675 5.70839 18.4736 7.15906C18.0026 10.3703 17.4485 13.5674 16.9082 16.7645C16.7281 17.8349 15.4121 18.3842 14.567 17.694C12.5445 16.3138 10.522 14.9335 8.52714 13.5251C7.87605 12.8491 8.48558 11.8773 9.0674 11.3984C10.7298 9.73647 12.4891 8.31396 14.0683 6.56752C14.4978 5.52529 13.2372 6.39851 12.8216 6.66611C10.5497 8.25763 8.33319 9.94773 5.92277 11.3562C4.70371 12.0463 3.263 11.4547 2.04394 11.0745C0.949549 10.6238 -0.657398 10.159 0.284605 9.45478Z" fill="white"/>
</svg>
